
<svg
   xmlns="http://www.w3.org/2000/svg"
   version="1.1"
   id="svg2"
   viewBox="0 0 102.96875 19.882811"
   height="5.611371mm"
   width="29.060068mm">
  <defs id="defs4" />
  <g transform="translate(-57.651878,-298.67667)" id="layer1">
    <g id="text14202" style="font-style:normal;font-variant:normal;font-weight:normal;font-stretch:semi-expanded;font-size:20px;line-height:125%;font-family:Ravie;-inkscape-font-specification:'Ravie Semi-Expanded';letter-spacing:0px;word-spacing:0px;fill:#000000;fill-opacity:1;stroke:none;stroke-width:1px;stroke-linecap:butt;stroke-linejoin:miter;stroke-opacity:1">
      <path
         id="path14209"
         style=""
         d="m 74.106956,309.76065 q 0,5.19531 -6.474609,5.19531 -1.015625,0 -2.861328,-0.12695 -1.835938,-0.12695 -2.626953,-0.12695 -2.197266,0 -3.232422,0.76172 l -0.205078,-2.5 q 0.722656,-0.47852 1.503906,-0.47852 0.527344,0 1.015625,0.25391 -1.660156,-4.35547 -1.660156,-10.11719 0,-0.72266 -0.546875,-0.99609 -0.05859,-0.0293 -1.171875,-0.32227 -0.195313,-0.0781 -0.195313,-1.18164 0,-1.10352 0.07813,-1.25977 2.1875,1.875 6.376953,1.875 0.449219,0 1.269532,-0.0488 0.820312,-0.0488 1.210937,-0.0488 3.427735,0 5.244141,2.1582 1.347656,1.5918 2.021484,4.76563 0.253906,1.23046 0.253906,2.19726 z m -2.5,-1.73828 q 0,-1.66016 -1.445312,-2.59766 -0.947266,-0.625 -3.017578,-1.12304 -1.40625,-0.3418 -3.056641,-0.3418 -0.253906,0 -0.341797,0.0195 -0.214843,0.97656 -0.214843,2.17774 0,2.46093 0.634765,4.3457 0.839844,0.45898 2.822266,0.45898 2.11914,0 3.320312,-0.71289 1.298828,-0.76172 1.298828,-2.22656 z" />
      <path
         id="path14211"
         style=""
         d="m 88.560081,308.72549 q 0,0.49805 -0.03906,1.17188 0,0.11719 -0.09766,0.0879 -1.660157,-0.37109 -5.439453,-0.98633 -3.359375,-0.53711 -3.515625,-0.53711 -0.22461,0 -0.22461,1.83594 0,2.31445 1.015625,3.45703 0.771485,0.86914 1.982422,0.92774 0.683594,0.0293 1.259766,-0.20508 0.224609,-0.0879 0.224609,-0.17578 0,-0.0586 -0.117187,-0.0977 -1.279297,-0.23437 -2.089844,-0.94727 -0.810547,-0.72265 -0.810547,-1.71875 0,-0.625 0.703125,-1.00585 0.712891,-0.39063 1.933594,-0.39063 0.839843,0 1.777343,0.17578 2.519532,0.48828 2.519532,2.02149 0,0.42968 -0.234375,0.8789 -0.654297,1.23047 -1.621094,1.75781 -1.40625,0.76172 -4.277344,0.76172 -3.300781,0 -5.273437,-2.4414 -1.689453,-2.08008 -1.689453,-4.69727 0,-4.83398 7.90039,-4.83398 4.580078,0 5.634766,2.29492 0.478515,1.04492 0.478515,2.66601 z m -3.740234,-2.24609 q 0,-0.54687 -0.712891,-0.88867 -0.71289,-0.35156 -1.884765,-0.35156 -1.367188,0 -2.373047,0.2539 -1.181641,0.29297 -1.181641,0.79102 0,1.25976 4.033203,1.25976 2.119141,0 2.119141,-1.06445 z" />
      <path
         id="path14213"
         style=""
         d="m 96.060081,315.40518 q -1.298828,-0.5664 -2.578125,-0.5664 -1.708984,0 -3.603515,0.91796 -0.136719,0.0684 -0.175781,0.0488 -0.04883,-0.0293 -0.0098,-0.18554 1.289062,-5.19532 1.289062,-8.51563 0,-2.90039 -0.742187,-5.56641 -0.117188,-0.40039 -0.546875,-0.5664 -0.332031,-0.11719 -1.132813,-0.17578 -0.371093,-0.33203 -0.302734,-1.5918 0.05859,0.0195 0.341797,0.0195 1.445312,0 6.376953,-0.54687 0.664063,2.32422 0.664063,5.16601 0,5.23438 -1.962891,9.1211 0.703125,-0.3418 1.416016,-0.3418 0.566406,0 0.966796,0.17578 l 0,2.60742 z" />
      <path
         id="path14215"
         style=""
         d="m 113.61868,314.81924 q -0.45899,-0.32226 -1.49415,-0.32226 -1.25,0 -2.82226,0.41016 -1.57227,0.41015 -2.46094,0.95703 0.3418,-1.64063 0.3418,-2.1875 0,-0.16602 -0.0586,-0.15625 -0.0391,0.01 -0.12695,0.0781 -1.64062,1.34766 -3.91601,1.64063 -1.08399,0.13672 -1.83594,0.13672 -2.226564,0 -3.193361,-0.94727 -0.869141,-0.84961 -0.869141,-2.60742 0,-0.91797 0.175782,-2.02149 0.361328,-2.1875 1.5625,-3.61328 1.44531,-1.68945 3.70117,-1.68945 2.44141,0 4.75586,2.24609 0,-0.48828 -0.27344,-1.37695 -0.30273,-0.94727 -0.68359,-1.54297 4.80469,-0.73242 6.64062,-1.40625 0.17579,0.61524 0.17579,1.24024 0,0.50781 -0.11719,0.625 -1.43555,0.48828 -1.43555,0.8789 l 0,0.0195 q 0,0.32227 0.0293,1.01563 0.0293,0.69336 0.0293,1.06445 0,3.13477 -0.80079,5.17578 0.64454,-0.40039 1.53321,-0.40039 0.46875,0 0.86914,0.10742 l 0.27344,2.67578 z m -5.67383,-5.45898 q 0,-0.41016 -0.82032,-0.68359 -0.86914,-0.29297 -2.26562,-0.29297 -1.82617,0 -3.51563,0.68359 -1.64062,0.67383 -1.64062,1.35742 0,0.54688 1.16211,0.87891 1.04492,0.29297 2.48047,0.29297 1.63086,0 3.15429,-0.78125 1.44532,-0.75195 1.44532,-1.45508 z" />
      <path
         id="path14217"
         style=""
         d="m 131.36282,305.62003 -0.10743,1.14257 q -1.30859,-0.42968 -1.5332,-0.41992 -0.36133,0.0195 -0.58594,1.22071 -0.16601,0.88867 -0.40039,3.41796 -0.24414,2.66602 -0.53711,3.64258 -0.61523,2.02149 -1.69922,2.86133 -1.40625,1.07422 -4.38476,1.07422 -4.56055,0 -6.57227,-1.35742 -0.63476,-0.42969 -1.08398,-1.32813 -0.43945,-0.86914 -0.43945,-1.63086 0,-0.99609 1.02539,-1.52343 0.96679,-0.49805 2.65625,-0.49805 1.73828,0 2.91992,0.64453 1.07422,0.58594 1.07422,1.31836 0,1.48437 -2.08008,2.08008 -0.17578,0.0488 -1.48438,0.30273 -0.71289,0.14649 -0.71289,0.33203 0,0.41992 2.15821,0.41992 1.62109,0 2.30468,-0.36132 1.14258,-0.60547 1.77735,-1.9336 0.45898,-0.94726 0.45898,-1.60156 -0.0293,-0.23437 -3.33008,-2.7832 -3.3789,-2.61719 -4.46289,-3.1836 -0.37109,0 -2.20703,0.98633 -0.15625,0.0879 -0.15625,-0.0781 0,-0.41016 0.01,-1.06446 0.01,-0.65429 0.01,-0.85937 l 0,-0.55664 q 4.85352,-0.79102 7.44141,-2.15821 0.24414,0.43946 0.76172,1.31836 -0.48828,0.12696 -1.64063,0.29297 0,1.05469 1.9043,2.90039 1.61133,1.55274 2.73438,2.11914 0.5371,-0.80078 1.38671,-2.65625 0.83008,-1.8164 0.83008,-2.1582 -2.05078,0.01 -2.97851,-0.0391 0.14648,-0.61524 0.53711,-1.98242 2.85156,0.10742 6.40625,2.09961 z" />
      <path
         id="path14219"
         style=""
         d="m 144.96633,308.72549 q 0,0.49805 -0.0391,1.17188 0,0.11719 -0.0977,0.0879 -1.66015,-0.37109 -5.43945,-0.98633 -3.35938,-0.53711 -3.51563,-0.53711 -0.2246,0 -0.2246,1.83594 0,2.31445 1.01562,3.45703 0.77148,0.86914 1.98242,0.92774 0.6836,0.0293 1.25977,-0.20508 0.22461,-0.0879 0.22461,-0.17578 0,-0.0586 -0.11719,-0.0977 -1.2793,-0.23437 -2.08984,-0.94727 -0.81055,-0.72265 -0.81055,-1.71875 0,-0.625 0.70312,-1.00585 0.71289,-0.39063 1.9336,-0.39063 0.83984,0 1.77734,0.17578 2.51953,0.48828 2.51953,2.02149 0,0.42968 -0.23437,0.8789 -0.6543,1.23047 -1.6211,1.75781 -1.40625,0.76172 -4.27734,0.76172 -3.30078,0 -5.27344,-2.4414 -1.68945,-2.08008 -1.68945,-4.69727 0,-4.83398 7.90039,-4.83398 4.58008,0 5.63477,2.29492 0.47851,1.04492 0.47851,2.66601 z m -3.74023,-2.24609 q 0,-0.54687 -0.71289,-0.88867 -0.71289,-0.35156 -1.88477,-0.35156 -1.36719,0 -2.37305,0.2539 -1.18164,0.29297 -1.18164,0.79102 0,1.25976 4.03321,1.25976 2.11914,0 2.11914,-1.06445 z" />
      <path
         id="path14221"
         style=""
         d="m 160.62063,314.49698 q -0.47852,-0.33203 -1.43555,-0.33203 -2.29492,0 -4.7168,1.43554 0.49805,-1.80664 0.49805,-2.21679 0,-0.15625 -0.0781,-0.0879 -0.83985,0.75195 -2.36328,1.1914 -1.52344,0.42969 -3.26172,0.42969 -2.13868,0 -3.06641,-0.87891 -0.83008,-0.79101 -0.83008,-2.46093 0,-0.80078 0.17578,-1.89453 0.3418,-2.05079 1.43555,-3.39844 1.39648,-1.71875 3.66211,-1.71875 1.20117,0 2.5,0.625 1.21094,0.58594 2.11914,1.5332 0,-0.0391 0.01,-0.14648 0.0195,-0.11719 0.0195,-0.13672 0,-3.31055 -2.78321,-6.45508 3.4668,-0.47852 7.71485,-1.20117 0.14648,0.46875 0.14648,1.09375 0,0.45898 -0.12695,0.60547 -1.38672,0.44922 -1.38672,1.01562 0,0.0586 0.01,0.11719 0.49804,2.48047 0.49804,4.60937 0,3.30079 -1.20117,6.07422 0.83008,-0.49804 1.58203,-0.49804 0.40039,0 0.60547,0.0976 l 0.27344,2.59766 z m -4.79492,-5.13672 q 0,-0.42969 -1.02539,-0.71289 -0.89844,-0.24414 -1.97266,-0.24414 -1.71875,0 -3.35938,0.6543 -1.64062,0.65429 -1.64062,1.31836 0,0.46875 0.94727,0.78125 0.99609,0.32226 2.62695,0.32226 1.51367,0 2.99805,-0.76172 1.42578,-0.72265 1.42578,-1.35742 z" />
    </g>
  </g>
</svg>
