<?xml version="1.0" encoding="UTF-8" standalone="no"?>
<svg
   xmlns:dc="http://purl.org/dc/elements/1.1/"
   xmlns:cc="http://creativecommons.org/ns#"
   xmlns:rdf="http://www.w3.org/1999/02/22-rdf-syntax-ns#"
   xmlns:svg="http://www.w3.org/2000/svg"
   xmlns="http://www.w3.org/2000/svg"
   version="1.1"
   id="svg2"
   viewBox="0 0 94.819342 28.828123"
   height="8.1359367mm"
   width="26.760124mm">
  <defs
     id="defs4" />
  <metadata
     id="metadata7">
    <rdf:RDF>
      <cc:Work
         rdf:about="">
        <dc:format>image/svg+xml</dc:format>
        <dc:type
           rdf:resource="http://purl.org/dc/dcmitype/StillImage" />
        <dc:title></dc:title>
      </cc:Work>
    </rdf:RDF>
  </metadata>
  <g
     transform="translate(-66.680054,-281.52127)"
     id="layer1">
    <g
       id="text14223"
       style="font-style:normal;font-variant:normal;font-weight:normal;font-stretch:semi-expanded;font-size:30.00000191px;line-height:125%;font-family:Ravie;-inkscape-font-specification:'Ravie Semi-Expanded';letter-spacing:0px;word-spacing:0px;fill:#000000;fill-opacity:1;stroke:none;stroke-width:1px;stroke-linecap:butt;stroke-linejoin:miter;stroke-opacity:1">
      <path
         id="path14228"
         style=""
         d="m 90.703493,296.2283 q 0,1.37695 -0.541992,3.47168 -0.717774,2.79785 -3.955079,4.42383 -3.369141,1.69922 -8.701172,1.69922 -5.229493,0 -8.276368,-2.03613 -2.548828,-1.68457 -2.548828,-3.85254 0,-1.39161 1.069336,-2.3877 1.21582,-1.14258 3.515625,-1.45019 1.142578,-0.14649 2.34375,-0.14649 2.475586,0 3.911133,0.71777 1.391602,0.68848 1.391602,1.83106 0,1.72852 -1.845703,2.91504 -0.878907,0.57129 -3.00293,1.31836 -0.820313,0.27832 -0.820313,0.51269 0,0.71778 3.032227,0.71778 2.387695,0 4.042969,-0.68848 2.050781,-0.84961 2.050781,-2.46094 0,-0.23437 -0.05859,-0.54199 -0.834961,-4.27734 -1.245118,-5.1123 -0.878906,-1.72852 -3.339844,-1.72852 -0.644531,0 -2.211914,0.17578 -1.552734,0.16113 -2.241211,0.16113 -4.731446,0 -4.731446,-3.82324 0,-1.21582 0.483399,-2.95898 0.644531,-2.37305 2.885742,-3.7793 2.680664,-1.68457 7.309571,-1.68457 4.760742,0 7.426758,1.49414 2.416993,1.3623 2.416993,3.45703 0,3.12012 -4.980469,3.12012 -2.431641,0 -4.13086,-0.80567 -1.59668,-0.74707 -1.59668,-1.71386 0,-1.3916 2.124024,-2.19727 0.805664,-0.26367 1.625976,-0.52734 0.747071,-0.27832 0.747071,-0.57129 0,-0.39551 -1.040039,-0.68848 -1.025391,-0.30762 -2.329102,-0.30762 -1.611328,0 -2.636719,0.5127 -1.230469,0.61523 -1.230469,1.83106 0,0.57128 0.27832,1.25976 0.395508,1.31836 0.791016,2.63672 0.454102,1.40625 1.347656,2.02148 1.171876,0.80567 3.647462,0.80567 0.219726,0 1.391601,-0.0439 1.171875,-0.0586 1.757813,-0.0586 2.8125,0 4.160156,0.80566 1.713868,1.04004 1.713868,3.67676 z" />
      <path
         id="path14230"
         style=""
         d="m 117.72986,290.94022 -0.16113,1.71386 q -1.96289,-0.64453 -2.29981,-0.62988 -0.54199,0.0293 -0.8789,1.83105 -0.24903,1.33301 -0.60059,5.12696 -0.36621,3.99902 -0.80566,5.46387 -0.92285,3.03222 -2.54883,4.29199 -2.10938,1.61133 -6.57715,1.61133 -6.84082,0 -9.858398,-2.03614 -0.952149,-0.64453 -1.625977,-1.99218 -0.65918,-1.30372 -0.65918,-2.44629 0,-1.49414 1.538086,-2.28516 1.450196,-0.74707 3.984376,-0.74707 2.607422,0 4.379883,0.9668 1.61133,0.8789 1.61133,1.97754 0,2.22656 -3.12012,3.12011 -0.263671,0.0732 -2.226562,0.4541 -1.069336,0.21973 -1.069336,0.49805 0,0.62988 3.237308,0.62988 2.43164,0 3.45703,-0.54199 1.71387,-0.9082 2.66601,-2.90039 0.68848,-1.4209 0.68848,-2.40234 -0.0439,-0.35157 -4.99512,-4.17481 -5.068357,-3.92578 -6.694333,-4.77539 -0.556641,0 -3.310547,1.47949 -0.234375,0.13184 -0.234375,-0.11718 0,-0.61524 0.01465,-1.59668 0.01465,-0.98145 0.01465,-1.28907 l 0,-0.83496 q 7.280273,-1.18652 11.162108,-3.2373 0.36621,0.65918 1.14258,1.97754 -0.73242,0.19043 -2.46094,0.43945 0,1.58203 2.85645,4.35059 2.41699,2.3291 4.10156,3.17871 0.80566,-1.20117 2.08008,-3.98438 1.24512,-2.72461 1.24512,-3.2373 -3.07618,0.0146 -4.46778,-0.0586 0.21973,-0.92285 0.80567,-2.97363 4.27734,0.16113 9.60937,3.14942 z" />
      <path
         id="path14232"
         style=""
         d="m 140.09803,306.33572 q -0.21973,0.57129 -0.54199,1.43555 l -9.00879,-1.68457 q 1.50879,-2.40234 1.50879,-7.4707 0,-1.34766 0,-1.34766 -0.10254,-2.40234 -1.25977,-2.40234 -0.36621,0 -0.9668,0.30761 -2.44629,1.23047 -3.47168,5.36133 0.0293,1.4209 1.34766,5.34668 -3.33985,-1.49414 -6.69434,-1.49414 -2.22656,0 -3.09082,0.77637 l 0.0293,-3.45703 q 0.46875,-0.20508 1.17187,-0.20508 1.04004,0 2.19727,0.54199 -0.82031,-1.15723 -1.47949,-5.74219 -0.39551,-2.84179 -0.54199,-5.02441 -0.0733,-1.17188 -1.40625,-1.3916 -0.43946,-0.0439 -1.28907,-0.20508 -0.39551,-0.11719 -0.39551,-1.28906 0,-0.36621 0.0586,-0.60059 0.27832,0.14649 11.58691,0.89356 -1.88965,2.98828 -1.88965,7.86621 1.78711,-5.52246 6.50391,-8.58399 1.30371,-0.83496 2.28516,-0.83496 1.71387,0 2.54883,2.31445 0.68847,1.875 0.68847,4.84864 0,1.14258 -0.11718,2.28515 -0.42481,4.01368 -0.42481,6.18165 0,2.03613 0.39551,2.8125 0.82031,0.32226 2.25586,0.76171 z" />
      <path
         id="path14234"
         style=""
         d="m 161.4994,294.20682 q 0,3.36914 -5.09766,3.36914 -2.54883,0 -4.21875,-0.90821 -1.56738,-0.8496 -1.56738,-2.00683 0,-1.83106 1.91894,-2.88574 1.68457,-0.92286 4.04297,-0.92286 0.14649,0 0.14649,-0.0586 0,-0.21973 -1.08399,-0.57129 -1.25976,-0.4248 -2.59277,-0.4248 -5.91797,0 -5.91797,5.31738 0,0.57129 0.0879,1.34766 0.43945,3.70605 1.58203,5.09765 0.84961,1.02539 2.44629,1.02539 2.47559,0 4.64356,-0.98144 1.93359,-0.86426 3.09082,-2.22656 0.0732,-0.0147 0.11718,0.0879 -1.3623,5.75683 -6.78222,6.47461 -1.36231,0.17578 -2.78321,0.17578 -9.50683,0 -9.50683,-8.84766 0,-4.30664 2.34375,-6.37207 2.21191,-1.94824 7.16308,-2.44629 1.20118,-0.11719 2.34375,-0.11719 4.13086,0 6.85547,1.46485 2.417,1.30371 2.68067,3.09082 0.0879,0.61523 0.0879,1.31836 z" />
    </g>
  </g>
</svg>
