<svg xmlns="http://www.w3.org/2000/svg" width="215.07" height="215.07" viewBox="0 0 215.07 215.07" style="fill-rule:evenodd;">

    <path  fill="#86b7d5" d="M149.62,45.78c1.61,2.76,2.83,8.22,3.37,15.35q2.3-3.39,4.28-6.4A22.08,22.08,0,0,1,159.14,71c2.82-1.09,7.68-4.45,9.11-6.3,1.55,7.77.32,14.46-2.92,17.21,3.54-.08,8.22-1.5,10.17-3.9q1.51,7.24-3.92,13.32a22.49,22.49,0,0,0,7.31-1.78c-.26,5.82-4.94,11.27-6.48,14.22a19.84,19.84,0,0,0,7.36-.72c-1,5.55-4.54,7.68-6,10.25a16,16,0,0,0,5.55-.49c-.11,4.17-3.57,8.28-9.87,12.18a27.89,27.89,0,0,0,7,2.07,21.08,21.08,0,0,1-8.12,6,13.43,13.43,0,0,0,4.16,1.73c-5.83,6.5-13.94,10.37-24.43,11.31,2.06,5.94,2.86,12.16,3.27,20.22a96,96,0,0,1,0,10.88c-.15,2.52-2.29,3.49-4.55,3.25-2.47-.26-5.09-2-5.36-4.64-.32-3.15-.57-6.42-.91-9.57A45.73,45.73,0,0,0,136.84,153c-8.63,4.71-16.35-.16-21.76-10.3-4.56-8.54-7.27-21-6.16-31.16l-1.38-1.62-1.39,1.62c1.11,10.11-1.6,22.62-6.16,31.16-5.41,10.14-13.13,15-21.76,10.3a46,46,0,0,0-3.73,13.35c-.34,3.15-.58,6.42-.91,9.57-.27,2.68-2.88,4.38-5.36,4.64-2.26.24-4.4-.73-4.55-3.25a100.91,100.91,0,0,1,0-10.88c.41-8.06,1.21-14.28,3.27-20.22-10.49-.94-18.6-4.81-24.43-11.31a13.32,13.32,0,0,0,4.16-1.73,21.08,21.08,0,0,1-8.12-6,27.89,27.89,0,0,0,7-2.07c-6.3-3.9-9.75-8-9.86-12.18a15.94,15.94,0,0,0,5.54.49c-1.42-2.57-4.92-4.7-6-10.25a19.86,19.86,0,0,0,7.36.72c-1.54-3-6.22-8.4-6.48-14.22a22.49,22.49,0,0,0,7.31,1.78Q38.06,85.3,39.57,78c2,2.4,6.64,3.82,10.17,3.9-3.24-2.75-4.47-9.44-2.91-17.21,1.42,1.85,6.28,5.21,9.1,6.3a22.12,22.12,0,0,1,1.87-16.3q2,3,4.29,6.4c.53-7.13,1.75-12.59,3.36-15.35a12.18,12.18,0,0,0,4.19,5.8c-.19-3.86-.17-8.94,2.74-12a15.74,15.74,0,0,0,2.17,4.26c.34-2.73,1.73-8.2,5.53-9.28a66.47,66.47,0,0,0-.22,7.63c2.09-3.43,5-6.31,8-7.49C80.85,53.19,65,88.5,65,107.82A25.36,25.36,0,0,0,67.75,120c4,7.92,8.67,7.17,10.36-1.26a42.76,42.76,0,0,0,.72-9.56c4.45-1.45,8.83.3,10.38,4.15a89.12,89.12,0,0,0,9.1-14.05L94.4,89.82a119.17,119.17,0,0,0,.82-17.76c-.11-3.42-.64-7.74-.23-11A5.29,5.29,0,0,1,97.73,57c1.45,4.89,3.27,9.64,5,14.44,1.45,4.11,4,11.74.43,15.37a5.37,5.37,0,0,0,8.81,0c-3.62-3.63-1-11.26.43-15.37,1.7-4.8,3.52-9.55,5-14.44a5.29,5.29,0,0,1,2.74,4.12c.42,3.24-.12,7.56-.23,11a120.52,120.52,0,0,0,.82,17.76l-3.91,9.42a89.83,89.83,0,0,0,9.1,14.05c1.55-3.85,5.93-5.6,10.38-4.15a43.37,43.37,0,0,0,.72,9.56c1.69,8.43,6.4,9.18,10.36,1.26a25.36,25.36,0,0,0,2.77-12.14c0-19.32-15.87-54.63-22.87-73.17,3,1.18,5.9,4.06,8,7.49a66.47,66.47,0,0,0-.22-7.63c3.8,1.08,5.19,6.55,5.53,9.28a15.74,15.74,0,0,0,2.17-4.26c2.91,3.11,2.93,8.19,2.74,12A12.18,12.18,0,0,0,149.62,45.78Z"/>
    <path  fill="#5891ba" d="M59.8,131a23.07,23.07,0,0,1-11.55-4.22,16.75,16.75,0,0,0,7-2.15c-4.77-2-9.82-6.28-11-10.07a20,20,0,0,0,6.59.56c-2.12-2-5.09-6.07-5.83-9.39a33.87,33.87,0,0,0,7,1.13,27,27,0,0,1-6.36-13.64,31.29,31.29,0,0,0,9.54,6.34,50.88,50.88,0,0,1-3.51-14,68.13,68.13,0,0,0,8.74,7.14q-4.5-9.37-2.85-17.85c1.3,1.39,3.1,3.08,5.38,5.06a46.5,46.5,0,0,1,.18-16.22,23.35,23.35,0,0,0,4.76,6c.13-5.79.66-11,2.27-15.3a31.15,31.15,0,0,0,2.16,4.33,115.46,115.46,0,0,1,2.6-12,8.64,8.64,0,0,0,2.05,2.9,21.64,21.64,0,0,1,2.93-7.53,66.47,66.47,0,0,1,.22-7.63c-3.8,1.08-5.19,6.55-5.53,9.28a15.74,15.74,0,0,1-2.17-4.26c-2.91,3.11-2.93,8.19-2.74,12a12.18,12.18,0,0,1-4.19-5.8c-1.61,2.76-2.83,8.22-3.36,15.35q-2.31-3.39-4.29-6.4A22.12,22.12,0,0,0,55.93,71c-2.82-1.09-7.68-4.45-9.1-6.3-1.56,7.77-.33,14.46,2.91,17.21-3.53-.08-8.21-1.5-10.17-3.9q-1.51,7.24,3.92,13.32a22.49,22.49,0,0,1-7.31-1.78c.26,5.82,4.94,11.27,6.48,14.22a19.86,19.86,0,0,1-7.36-.72c1,5.55,4.54,7.68,6,10.25a15.94,15.94,0,0,1-5.54-.49c.11,4.17,3.56,8.28,9.86,12.18a27.89,27.89,0,0,1-7,2.07,21.08,21.08,0,0,0,8.12,6,13.32,13.32,0,0,1-4.16,1.73c5.83,6.5,13.94,10.37,24.43,11.31.31-.91.66-1.81,1-2.71A5.3,5.3,0,0,1,63.87,141a20.58,20.58,0,0,0,6.23-2c.13-.24.27-.48.4-.73-6.55-.37-15.77.47-19.88-5.21A32,32,0,0,0,59.8,131Zm49.12-19.5c-1.11,10.11,1.6,22.62,6.16,31.16,5.41,10.14,13.13,15,21.76,10.3a118.41,118.41,0,0,0-9.23-16.56,222.8,222.8,0,0,0-18.69-24.9ZM100,142.67c4.56-8.54,7.27-21,6.16-31.16a222.8,222.8,0,0,0-18.69,24.9A118.41,118.41,0,0,0,78.23,153c8.63,4.71,16.35-.16,21.76-10.3Zm66.84-15.88c-2.62,2-8,4.18-11.56,4.22a32,32,0,0,0,9.18,2.05c-4.11,5.68-13.33,4.84-19.88,5.21.13.25.27.49.4.73a20.58,20.58,0,0,0,6.23,2,5.3,5.3,0,0,1-4.09,2.49c.37.9.72,1.8,1,2.71,10.49-.94,18.6-4.81,24.43-11.31a13.32,13.32,0,0,1-4.16-1.73,21.08,21.08,0,0,0,8.12-6,27.89,27.89,0,0,1-7-2.07c6.3-3.9,9.76-8,9.87-12.18a16,16,0,0,1-5.55.49c1.42-2.57,4.92-4.7,6-10.25a19.84,19.84,0,0,1-7.36.72c1.54-3,6.22-8.4,6.48-14.22a22.49,22.49,0,0,1-7.31,1.78Q177,85.3,175.5,78c-1.95,2.4-6.63,3.82-10.17,3.9,3.24-2.75,4.47-9.44,2.92-17.21-1.43,1.85-6.29,5.21-9.11,6.3a22.08,22.08,0,0,0-1.87-16.3q-2,3-4.28,6.4c-.54-7.13-1.76-12.59-3.37-15.35a12.18,12.18,0,0,1-4.19,5.8c.19-3.86.17-8.94-2.74-12a15.74,15.74,0,0,1-2.17,4.26c-.34-2.73-1.73-8.2-5.53-9.28a66.47,66.47,0,0,1,.22,7.63,21.44,21.44,0,0,1,2.93,7.53,8.64,8.64,0,0,0,2.05-2.9,115.46,115.46,0,0,1,2.6,12A31.15,31.15,0,0,0,145,54.46c1.61,4.3,2.14,9.51,2.27,15.3a23.35,23.35,0,0,0,4.76-6,46.5,46.5,0,0,1,.18,16.22q3.42-3,5.39-5.06,1.65,8.48-2.86,17.85a69.16,69.16,0,0,0,8.75-7.14,51.6,51.6,0,0,1-3.51,14,31.37,31.37,0,0,0,9.53-6.34,27,27,0,0,1-6.36,13.64,33.87,33.87,0,0,0,7-1.13c-.73,3.32-3.71,7.4-5.83,9.39a20,20,0,0,0,6.59-.56c-1.21,3.79-6.26,8.05-11,10.07a16.66,16.66,0,0,0,7,2.15Z"/>
    <path  fill="#a9cce1" d="M89.21,113.29c-4.51,5.89-9.42,11.52-13.61,17.2a73.92,73.92,0,0,0-5.1,7.78c-.13.25-.27.49-.4.73A49,49,0,0,0,68,143.47c-.37.9-.72,1.8-1,2.71-2.06,5.94-2.86,12.16-3.27,20.22a100.91,100.91,0,0,0,0,10.88c.15,2.52,2.29,3.49,4.55,3.25.23-5.19.79-10.17,1.21-14.24,1.2-11.49,4.87-23.11,11.82-32.42,6.26-8.45,15.81-20.29,22.19-28.73,1.37,1.58,2.74,3.17,4.09,4.76q2-2.39,4.08-4.76c6.38,8.44,15.93,20.28,22.19,28.73,6.95,9.31,10.62,20.93,11.82,32.42.43,4.07,1,9.05,1.21,14.24,2.26.24,4.4-.73,4.55-3.25a96,96,0,0,0,0-10.88c-.41-8.06-1.21-14.28-3.27-20.22-.31-.91-.66-1.81-1-2.71A49,49,0,0,0,145,139c-.13-.24-.27-.48-.4-.73a72.37,72.37,0,0,0-5.1-7.78c-4.19-5.68-9.1-11.31-13.61-17.2a89.83,89.83,0,0,1-9.1-14.05l3.91-9.42a120.52,120.52,0,0,1-.82-17.76c.11-3.42.65-7.74.23-11A5.29,5.29,0,0,0,117.34,57c-1.45,4.89-3.27,9.64-5,14.44-1.45,4.11-4.05,11.74-.43,15.37a5.37,5.37,0,0,1-8.81,0c3.62-3.63,1-11.26-.43-15.37-1.7-4.8-3.52-9.55-5-14.44A5.29,5.29,0,0,0,95,61.08c-.41,3.24.12,7.56.23,11a119.17,119.17,0,0,1-.82,17.76l3.91,9.42a89.12,89.12,0,0,1-9.1,14.05Z"/>
    <path  fill="#5891ba" d="M215.07,107.54A107.54,107.54,0,1,0,107.54,215.07,107.53,107.53,0,0,0,215.07,107.54Zm-10.48,0a97.06,97.06,0,1,0-97,97.05A97.05,97.05,0,0,0,204.59,107.54Z"/>

</svg>
