<svg xmlns="http://www.w3.org/2000/svg" width="215.07" height="215.07" viewBox="0 0 215.07 215.07" style="fill-rule:evenodd;">

    <path fill="#e0a034"
          d="M180.74,86c-3.86,3.5-7.74,7-11.69,10.36a159,159,0,0,1-16.54,12.8c-9.33,6.11-18.92,11.82-27.08,19.53a51,51,0,0,1-5-3,.62.62,0,0,1-.22-.8,8.73,8.73,0,0,0,.89-2c.2-1.3-1.2-1.89-2.27-1.08a4.42,4.42,0,0,0-1.39,1.86,5.18,5.18,0,0,0,.68,5.16c.86,1.05,2,1.84,2.88,2.89a.52.52,0,0,1,0,.71.8.8,0,0,1-.69.26,1.63,1.63,0,0,0-1,.18,136.87,136.87,0,0,0-20.64,13.62c-5.7,4.48-10.94,9.25-16.39,14.08a1,1,0,0,1-1,.14c-.52-.15-1.31-.4-2.1-.56-2.24-.43-3.41.22-2.81,2.67,1,4.36,6.66,10.38,10.57,12.43,1.51.79,2.84.85,2.62-1.28l-.24-2.32c-.08-.81,0-1.2.7-1.63a187.39,187.39,0,0,0,20.07-13.54c6.16-4.89,12.41-10.16,17.45-16.2a.56.56,0,0,1,.93,0,31,31,0,0,0,3.41,3.58,5.5,5.5,0,0,0,.7.52,3.81,3.81,0,0,0,4.34.06,2.4,2.4,0,0,0,.7-.72,1.43,1.43,0,0,0-.47-1.86.75.75,0,0,0-1,0c-.19.18-.47.4-.66.58a.4.4,0,0,1-.63,0c-.47-.62-1.08-1.29-1.5-1.91,0-2.57.1-4.87,1.7-6.59a5.23,5.23,0,0,1,4.67-1.85,7.56,7.56,0,0,1,3.85,2.13c5.64-5,11.49-9,17.52-13.48s14.45-11.25,17.66-18c2.36-5,2.28-11.43,2-16.78Z"/>
    <path fill="#eec270"
          d="M34.33,86c3.86,3.5,7.74,7,11.69,10.36a159,159,0,0,0,16.54,12.8c9.33,6.11,18.92,11.82,27.09,19.53a52,52,0,0,0,5-3,.61.61,0,0,0,.22-.8,8.28,8.28,0,0,1-.88-2c-.21-1.3,1.19-1.89,2.26-1.08a4.42,4.42,0,0,1,1.39,1.86,5.2,5.2,0,0,1-.67,5.16c-.87,1.05-2,1.84-2.89,2.89a.54.54,0,0,0,0,.71.81.81,0,0,0,.69.26,1.63,1.63,0,0,1,1,.18,136.37,136.37,0,0,1,20.64,13.62c5.7,4.48,10.94,9.25,16.39,14.08a1,1,0,0,0,1,.14c.53-.15,1.31-.4,2.1-.56,2.24-.43,3.41.22,2.82,2.67-1.06,4.36-6.66,10.38-10.58,12.43-1.51.79-2.84.85-2.62-1.28l.24-2.32c.08-.81,0-1.2-.7-1.63a187.39,187.39,0,0,1-20.07-13.54c-6.16-4.89-12.41-10.16-17.45-16.2a.56.56,0,0,0-.93,0,31,31,0,0,1-3.41,3.58,6.23,6.23,0,0,1-.69.52,3.82,3.82,0,0,1-4.35.06,2.4,2.4,0,0,1-.7-.72,1.43,1.43,0,0,1,.47-1.86.75.75,0,0,1,1,0c.19.18.47.4.66.58a.4.4,0,0,0,.63,0c.47-.62,1.08-1.29,1.5-1.91,0-2.57-.1-4.87-1.7-6.59a5.23,5.23,0,0,0-4.67-1.85,7.56,7.56,0,0,0-3.85,2.13c-5.64-5-11.49-9-17.52-13.48s-14.45-11.25-17.66-18c-2.35-5-2.28-11.43-2-16.78Z"/>
    <polygon fill="#eec270" points="107.54 36.07 116.76 64.64 146.78 64.58 122.46 82.18 131.79 110.72 107.54 93.02 83.28 110.72 92.61 82.18 68.29 64.58 98.31 64.64 107.54 36.07"/>
    <path fill="#e0a034"
          d="M215.07,107.54A107.54,107.54,0,1,0,107.54,215.07,107.53,107.53,0,0,0,215.07,107.54Zm-10.48,0a97.06,97.06,0,1,0-97,97.05A97.05,97.05,0,0,0,204.59,107.54Z"/>

</svg>
